# xmcd CD database file
#
# Track frame offsets:
#	150
#	8467
#	29819
#	42156
#	58281
#	75962
#	90358
#	108106
#	117400
#	126354
#	137324
#	152051
#	164897
#	179994
#	202322
#	226377
#	247283
#	262616
#
# Disc length: 3824 seconds
#
# Revision: 6
# Processed by: cddbd v1.5.2PL0 Copyright (c) Steve Scherf et al.
# Submitted via: CDex 1.51
#
DISCID=f80eee12
DTITLE=Claudio Monteverdi - Il sesto libro de madrigali  (Rinaldo Alessandrini, Concerto italiano)
DYEAR=2005
DGENRE=Classique
TTITLE0=Lamento d'Ariana - I
TTITLE1=Lamento d'Ariana - II
TTITLE2=Lamento d'Ariana - III
TTITLE3=Lamento d'Ariana - IV
TTITLE4=Zefiro torna
TTITLE5=Una donna fra l'altre
TTITLE6=A Dio, Florida bella
TTITLE7=Sestina  (Lagrime d'Amante al Sepolcro dell' Amata) - I
TTITLE8=Sestina  (Lagrime d'Amante al Sepolcro dell' Amata) - II
TTITLE9=Sestina  (Lagrime d'Amante al Sepolcro dell' Amata) - III
TTITLE10=Sestina  (Lagrime d'Amante al Sepolcro dell' Amata) - IV
TTITLE11=Sestina  (Lagrime d'Amante al Sepolcro dell' Amata) - V
TTITLE12=Sestina  (Lagrime d'Amante al Sepolcro dell' Amata) - VI
TTITLE13=Ohimè il bel viso
TTITLE14=Qui rise, o Tirsi
TTITLE15=Misero Alceo
TTITLE16=Batto, qui pianse Ergasto
TTITLE17=Presso un fiume tranquillo
EXTD=YEAR: 2005
EXTT0=
EXTT1=
EXTT2=
EXTT3=
EXTT4=
EXTT5=
EXTT6=
EXTT7=
EXTT8=
EXTT9=
EXTT10=
EXTT11=
EXTT12=
EXTT13=
EXTT14=
EXTT15=
EXTT16=
EXTT17=
PLAYORDER=
